<svg width="14.000000" height="14.000000" viewBox="0 0 14 14" fill="none" xmlns="http://www.w3.org/2000/svg" xmlns:xlink="http://www.w3.org/1999/xlink">
	<desc>
			Created with Pixso.
	</desc>
	<defs>
		<clipPath id="clip1_2120">
			<rect id="IMAGE" width="14.000000" height="14.000000" fill="white" fill-opacity="0"/>
		</clipPath>
	</defs>
	<g clip-path="url(#clip1_2120)">
		<path id="Vector" d="M12.98 7C12.98 10.3 10.3 12.98 7 12.98C3.69 12.98 1.01 10.3 1.01 7C1.01 3.69 3.69 1.01 7 1.01C10.3 1.01 12.98 3.69 12.98 7Z" stroke="#303F9F" stroke-opacity="1.000000" stroke-width="1.600000"/>
		<path id="Vector" d="M13.58 1.46C14.04 1.78 14.13 2.38 13.79 2.81L6.76 11.45L2.79 7.18C2.42 6.77 2.47 6.17 2.9 5.82C3.34 5.48 4 5.52 4.37 5.93L6.65 8.38L12.12 1.65C12.47 1.23 13.12 1.14 13.58 1.46Z" fill="#303F9F" fill-opacity="1.000000" fill-rule="evenodd"/>
	</g>
</svg>
