<svg width="181.000000" height="80.000000" viewBox="0 0 181 80" fill="none" xmlns="http://www.w3.org/2000/svg" xmlns:xlink="http://www.w3.org/1999/xlink">
	<desc>
			Created with Pixso.
	</desc>
	<defs>
		<clipPath id="clip1_2087">
			<rect id="IMAGE" width="181.000000" height="80.000000" fill="white" fill-opacity="0"/>
		</clipPath>
	</defs>
	<g clip-path="url(#clip1_2087)">
		<path id="Vector" d="M3.64453 76L33.3815 39.5869L72.1296 62.7065L99.6138 4.90771L137.911 30.3389L178.462 10.6875" stroke="#CCCCCC" stroke-opacity="1.000000" stroke-width="4.000000"/>
		<path id="Vector" d="M7.60504 76.1978C7.60504 78.2979 5.9026 80 3.80252 80C1.70245 80 0 78.2979 0 76.1978C0 74.0977 1.70245 72.395 3.80252 72.395C5.9026 72.395 7.60504 74.0977 7.60504 76.1978Z" fill="#CCCCCC" fill-opacity="1.000000" fill-rule="evenodd"/>
		<path id="Vector" d="M37.2647 40.4541C37.2647 42.5542 35.5623 44.2563 33.4622 44.2563C31.3621 44.2563 29.6597 42.5542 29.6597 40.4541C29.6597 38.354 31.3621 36.6514 33.4622 36.6514C35.5623 36.6514 37.2647 38.354 37.2647 40.4541Z" fill="#CCCCCC" fill-opacity="1.000000" fill-rule="evenodd"/>
		<path id="Vector" d="M76.0503 62.5088C76.0503 64.6089 74.3479 66.311 72.2478 66.311C70.1477 66.311 68.4453 64.6089 68.4453 62.5088C68.4453 60.4087 70.1477 58.7061 72.2478 58.7061C74.3479 58.7061 76.0503 60.4087 76.0503 62.5088Z" fill="#CCCCCC" fill-opacity="1.000000" fill-rule="evenodd"/>
		<path id="Vector" d="M103.429 4.71045C103.429 6.81055 101.726 8.5127 99.626 8.5127C97.5259 8.5127 95.8235 6.81055 95.8235 4.71045C95.8235 2.61035 97.5259 0.907715 99.626 0.907715C101.726 0.907715 103.429 2.61035 103.429 4.71045Z" fill="#CCCCCC" fill-opacity="1.000000" fill-rule="evenodd"/>
		<path id="Vector" d="M141.454 30.5674C141.454 32.6675 139.751 34.3696 137.651 34.3696C135.551 34.3696 133.848 32.6675 133.848 30.5674C133.848 28.4673 135.551 26.7646 137.651 26.7646C139.751 26.7646 141.454 28.4673 141.454 30.5674Z" fill="#CCCCCC" fill-opacity="1.000000" fill-rule="evenodd"/>
		<path id="Vector" d="M181.001 11.5547C181.001 13.6548 179.298 15.3569 177.198 15.3569C175.098 15.3569 173.395 13.6548 173.395 11.5547C173.395 9.45459 175.098 7.75195 177.198 7.75195C179.298 7.75195 181.001 9.45459 181.001 11.5547Z" fill="#CCCCCC" fill-opacity="1.000000" fill-rule="evenodd"/>
	</g>
</svg>
