<?xml version="1.0" encoding="utf-8"?><svg viewBox="0 0 181 108" xmlns="http://www.w3.org/2000/svg" xmlns:xlink="http://www.w3.org/1999/xlink"><style>:root>svg{display:none}:root>svg:target{display:block}</style><svg fill="none" viewBox="0 0 14 14" id="bird" xmlns="http://www.w3.org/2000/svg"><defs><clipPath id="ba"><path fill="#fff" fill-opacity="0" d="M0 0h14v14H0z"/></clipPath></defs><g clip-path="url(#ba)"><path d="M12.98 7a5.986 5.986 0 1 1-11.969-.011A5.986 5.986 0 0 1 12.98 7Z" stroke="#303F9F" stroke-width="1.6"/><path d="M13.58 1.46c.46.32.55.92.21 1.35l-7.03 8.64-3.97-4.27a.924.924 0 0 1 .11-1.36c.44-.34 1.1-.3 1.47.11l2.28 2.45 5.47-6.73c.35-.42 1-.51 1.46-.19Z" fill="#303F9F" fill-rule="evenodd"/></g></svg><svg fill="none" viewBox="0 0 14 14" id="bird-white" xmlns="http://www.w3.org/2000/svg"><defs><clipPath id="aa"><path fill="#fff" fill-opacity="0" d="M0 0h14v14H0z"/></clipPath></defs><g clip-path="url(#aa)"><path d="M12.98 7a5.986 5.986 0 1 1-11.969-.011A5.986 5.986 0 0 1 12.98 7Z" stroke="#FFF" stroke-width="1.6"/><path d="M13.58 1.46c.46.32.55.92.21 1.35l-7.03 8.64-3.97-4.27a.924.924 0 0 1 .11-1.36c.44-.34 1.1-.3 1.47.11l2.28 2.45 5.47-6.73c.35-.42 1-.51 1.46-.19Z" fill="#FFF" fill-rule="evenodd"/></g></svg><svg fill="none" viewBox="0 0 181 80" id="roofers-icon1" xmlns="http://www.w3.org/2000/svg"><defs><clipPath id="ca"><path fill="#fff" fill-opacity="0" d="M0 0h181v80H0z"/></clipPath></defs><g clip-path="url(#ca)"><path d="m3.645 76 29.737-36.413 38.748 23.12 27.484-57.8L137.91 30.34l40.551-19.651" stroke="#CCC" stroke-width="4"/><path d="M7.605 76.198a3.802 3.802 0 1 1-7.604 0 3.802 3.802 0 0 1 7.604 0ZM37.265 40.454a3.802 3.802 0 1 1-7.605 0 3.802 3.802 0 0 1 7.605 0ZM76.05 62.509a3.802 3.802 0 1 1-7.604 0 3.802 3.802 0 0 1 7.604 0ZM103.429 4.71a3.803 3.803 0 1 1-7.605 0 3.803 3.803 0 0 1 7.605 0ZM141.454 30.567a3.803 3.803 0 1 1-7.605 0 3.803 3.803 0 0 1 7.605 0ZM181.001 11.555a3.803 3.803 0 1 1-7.605-.001 3.803 3.803 0 0 1 7.605 0Z" fill="#CCC" fill-rule="evenodd"/></g></svg><svg fill="none" viewBox="0 0 109 108" id="roofers-icon2" xmlns="http://www.w3.org/2000/svg"><defs><clipPath id="da"><path fill="#fff" fill-opacity="0" d="M0 0h109v108H0z"/></clipPath></defs><g clip-path="url(#da)"><path d="M54.79 106C27.61 106 5.575 83.967 5.575 56.787S27.61 7.574 54.79 7.574c27.18 0 49.213 22.033 49.213 49.213S81.969 106 54.789 106Z" stroke="#148C2E" stroke-width="4"/><path d="m60.771 6.968-10.452 6.034V.934l10.452 6.034ZM6.67 71.43l10.104 6.6-10.768 5.45.664-12.05ZM95.777 85.249l-.32-12.064 10.608 5.755-10.288 6.309Z" fill="#148C2E"/></g></svg><svg fill="none" viewBox="0 0 87 92" id="roofers-icon3" xmlns="http://www.w3.org/2000/svg"><defs><clipPath id="ea"><path fill="#fff" fill-opacity="0" d="M0 0h87v92H0z"/></clipPath></defs><g clip-path="url(#ea)"><path d="M81.204 72.443H2.984h79.682M84.016 72.443 74.572 58.45a4 4 0 0 1-.685-2.238v-20.91c0-16.782-13.605-30.387-30.387-30.387S13.113 18.521 13.113 35.303v20.91a4 4 0 0 1-.685 2.238L2.984 72.443" stroke="#CCC" stroke-width="4" stroke-linejoin="round" stroke-linecap="round"/><path d="M28.644 75.144C28.644 83.349 35.295 90 43.5 90s14.856-6.651 14.856-14.856" stroke="#CCC" stroke-width="4" stroke-linejoin="round" stroke-linecap="square"/><path d="M77.02 11.48c0 6.34-5.14 11.479-11.48 11.479-6.34 0-11.479-5.14-11.479-11.48C54.061 5.14 59.201 0 65.541 0c6.34 0 11.48 5.14 11.48 11.48Z" fill="#C04C28" fill-rule="evenodd"/><path d="M65.511 9.195h-2.56v-1.84h4.512v11.696h-1.951V9.195Z" fill="#FFF"/></g></svg></svg>